<svg width="150" height="38" viewBox="0 0 150 38" fill="none" xmlns="http://www.w3.org/2000/svg">
  <path d="M15.5 7C10.2533 7 6 11.2533 6 16.5C6 21.7467 10.2533 26 15.5 26H22.5C23.3284 26 24 25.3284 24 24.5C24 23.6716 23.3284 23 22.5 23H15.5C11.9101 23 9 20.0899 9 16.5C9 12.9101 11.9101 10 15.5 10H22.5C23.3284 10 24 9.32843 24 8.5C24 7.67157 23.3284 7 22.5 7H15.5Z" fill="white"/>
  <path d="M27.5 7C26.6716 7 26 7.67157 26 8.5C26 9.32843 26.6716 10 27.5 10H34.5C38.0899 10 41 12.9101 41 16.5C41 20.0899 38.0899 23 34.5 23H27.5C26.6716 23 26 23.6716 26 24.5C26 25.3284 26.6716 26 27.5 26H34.5C39.7467 26 44 21.7467 44 16.5C44 11.2533 39.7467 7 34.5 7H27.5Z" fill="white"/>
  <path d="M53.64 26V7.6H63.48C65.16 7.6 66.6 7.92 67.8 8.56C69 9.2 69.9 10.08 70.5 11.2C71.1 12.32 71.4 13.6 71.4 15.04C71.4 16.48 71.1 17.76 70.5 18.88C69.9 20 69 20.88 67.8 21.52C66.6 22.16 65.16 22.48 63.48 22.48H57.48V26H53.64ZM67.56 26L62.76 20.96H66.84L71.64 26H67.56ZM57.48 19.12H63.24C64.72 19.12 65.84 18.77 66.6 18.08C67.36 17.39 67.74 16.4 67.74 15.1C67.74 13.8 67.36 12.8 66.6 12.1C65.84 11.4 64.72 11.05 63.24 11.05H57.48V19.12Z" fill="white"/>
  <path d="M74.3894 26V7.6H78.2294V26H74.3894ZM76.3094 26V22.6H86.9094V26H76.3094Z" fill="white"/>
  <path d="M90.7987 26V7.6H104.399V11.05H94.6387V14.8H103.399V18.25H94.6387V22.55H104.399V26H90.7987Z" fill="white"/>
  <path d="M107.878 26V7.6H111.718V22.55H120.878V26H107.878Z" fill="white"/>
  <path d="M123.687 26V7.6H127.527V22.55H136.687V26H123.687Z" fill="white"/>
</svg>
